<?xml version="1.0" encoding="utf-8"?>
<svg xmlns="http://www.w3.org/2000/svg" xmlns:xlink="http://www.w3.org/1999/xlink" version= "1.1" width="500px" height="500px" viewBox="634 791 500 500">

<g id="layer1">
<g style="fill:rgb(0,0,0); fill-opacity:0.5; stroke-linejoin: miter">
<path d="M694.3484,1007.0657L694.5919,1007.06726Q706.1749,1007.54724,711.14014,1015.88965Q719.12744,1026.6608,729.7144,1059.1837Q730.50995,1061.031,732.1616,1061.4071Q734.60266,1061.2847,736.5338,1058.9656Q749.42737,1039.7313,755.1362,1035.9377Q763.1994,1029.7235,775.83636,1027.9135Q811.90845,1023.2164,824.83594,1029.9296Q828.5799,1032.0618,832.3233,1040.0862Q834.18274,1042.7388,839.53564,1067.4436Q840.0979,1069.4365,841.4651,1069.5752Q842.3449,1069.9846,845.2628,1066.6674Q854.0398,1053.5956,857.8884,1049.7253Q861.10046,1045.9923,867.5405,1041.5476Q879.0207,1033.9475,893.4851,1035.2802Q906.17914,1036.8025,927.35614,1050.9116Q942.7738,1060.9662,971.49335,1089.0123Q976.727,1093.309,977.7439,1092.7822Q981.7694,1092.4375,987.9283,1088.6168Q1019.0184,1059.8774,1026.8267,1056.2474Q1037.7994,1050.3219,1052.3771,1054.1041Q1096.8655,1063.4154,1097.1079,1111.4674Q1095.2153,1126.8772,1080.3818,1130.6896L1075.5581,1130.9003Q1061.5676,1129.8246,1052.7086,1129.6799L1035.7001,1129.7616Q958.92676,1133.9435,872.4503,1137.0834Q798.77893,1140.4325,678.8577,1149.4277Q680.08105,1147.1261,677.2983,1138.7686Q662.4041,1114.8876,657.6111,1100.1606Q653.86694,1088.5808,654.9523,1078.7107Q661.75366,1009.0498,694.3484,1007.0657 M695.48926,1004.21967L694.9471,1004.2258Q660.9116,1004.67365,651.92096,1077.798Q649.9228,1090.226,655.17773,1105.222Q658.77563,1117.1206,671.82764,1141.013Q672.7466,1141.1655,673.0114,1152.4014Q674.8833,1155.5438,679.00836,1156.2404Q681.4443,1155.9958,680.48083,1152.2742Q793.1874,1143.8065,843.8716,1141.1743Q878.27,1139.0927,957.2873,1136.7319L1036.0944,1132.8597Q1043.7351,1132.5961,1052.6307,1132.8392Q1061.1139,1133.0183,1075.7423,1134.269Q1078.2603,1134.4316,1082.0293,1134.0881Q1098.0562,1129.8326,1100.959,1111.9204Q1101.2161,1062.0275,1056.3438,1050.9741Q1038.9108,1045.9652,1026.5479,1052.0271Q1019.703,1054.1887,986.0438,1085.1362Q981.9696,1088.2537,977.75684,1088.8904L948.6068,1062.5092Q938.698,1053.985,929.5388,1047.6938Q908.1101,1033.1421,893.7219,1031.5781Q862.7826,1028.5032,842.41754,1064.3256Q837.58417,1033.4907,826.73785,1026.9677Q815.2619,1019.8018,776.5083,1024.6556Q762.8988,1026.5371,753.92834,1032.975Q749.8481,1036.0797,746.6374,1039.9048L733.3314,1056.7704Q722.75226,1025.6882,714.1304,1014.14166Q707.2315,1004.3182,695.48926,1004.21967"/>
</g>
</g>
</svg>