<?xml version="1.0" encoding="utf-8"?>
<svg xmlns="http://www.w3.org/2000/svg" xmlns:xlink="http://www.w3.org/1999/xlink" version= "1.1" width="1768px" height="2082px" viewBox="0 0 1768 2082">
<rect x="0" y="0" width="1768" height="2082" fill="rgb(217,218,217)"/>
<g id="layer1">
<g style="fill:rgb(0,0,0); fill-opacity:1.0; stroke-linejoin: miter">
<path d="M711.9635,355.04852L711.83936,357.6868L715.69824,411.3511L712.91473,398.13065Q712.60034,409.4467,712.7073,413.38647Q715.6793,451.1792,715.79376,463.0069Q715.1177,457.5319,714.54175,450.65985L711.68207,413.91122Q712.5802,432.07935,713.3484,454.38934Q713.7109,461.8094,713.9227,463.37793Q714.75696,472.27924,716.042,478.58344L719.07294,509.66443L720.3242,526.5013Q720.6649,546.94525,720.83484,549.7837Q720.92145,554.5523,720.4903,571.8087L719.2461,580.923L719.6191,600.0797Q720.37854,606.2653,721.12726,623.6719L719.8999,639.8789L720.73,659.8562L717.78107,682.7617L718.63055,701.80896Q718.7901,703.92114,717.72644,716.83L715.51385,723.36L714.9395,733.25543Q715.5847,744.77527,720.18024,760.6088Q721.78107,772.26013,721.9938,776.56683L724.0657,786.16693Q724.9556,796.5388,727.0613,809.9607Q731.2522,817.8996,735.92755,846.0857L736.27325,853.1201Q737.11926,856.0508,738.5616,878.4087L738.334,881.5763L735.04016,866.07324L736.57275,893.89087L736.5977,898.26306L744.1582,939.1624Q742.48846,962.4607,741.6467,969.97186L735.8974,1011.3228Q734.69305,1023.45233,733.28784,1050.1653Q733.9831,1052.0017,738.75946,1010.4116L739.83496,1020.9549Q740.18164,1028.7417,739.63135,1034.34L736.87085,1065.0728L736.512,1073.8782L736.57465,1097.1423L736.8441,1101.4817L740.3718,1112.3843L741.2504,1117.7202L742.2983,1109.3108L744.06177,1106.4435L750.043,1105.5946L751.1905,1109.8435Q751.985,1119.5315,754.16583,1129.3411L752.7847,1109.7219Q753.0586,1100.23,753.4758,1101.1196L754.8354,1118.5911L757.6147,1128.5901L768.8239,1142.589L763.74603,1128.4133L765.5344,1100.6814L765.9293,1096.1628Q767.27185,1094.3699,768.5354,1087.7129Q769.2216,1084.888,772.0826,1065.1946Q773.8816,1050.3643,775.69745,1028.5111Q776.1769,1023.7936,777.0412,1006.71765L776.59937,980.4746Q776.8177,975.69446,776.89154,964.5912L776.7696,961.5963Q778.941,974.6072,779.4102,980.3862L779.5465,985.6891L780.28174,983.59973L780.6041,976.1612Q780.638,971.00366,777.13293,954.1657L775.7422,929.5679Q775.9188,924.1919,775.8164,908.0874Q775.1707,895.509,774.34015,885.56824Q773.9634,879.2022,773.9815,869.1074L772.6392,888.95624L772.46674,904.24976L770.5755,849.83746L766.9462,814.0405Q766.25287,805.4881,766.2442,800.67255L766.3255,795.3053L767.6019,774.1914L766.5028,769.69446L766.8968,760.4793L770.83167,731.0292Q772.5236,711.2969,773.4805,689.54156L773.94525,670.1793L773.2241,666.1786Q772.9494,641.4413,773.1967,637.6075Q773.2096,629.39575,772.9445,623.84845L771.0612,618.217L772.24817,622.9346L772.333,632.157L771.69495,631.3142Q771.50604,624.41833,768.676,614.63855L768.0,606.0987Q766.49677,596.6296,764.5924,581.483L761.8121,570.0972L757.6078,540.05914L760.6921,565.0947L763.6829,580.2177Q765.90204,608.086,765.85126,614.0959Q765.23663,609.9929,763.823,591.60815Q761.7416,580.24927,759.49097,572.9588L756.24225,539.96735L755.6421,538.5513L755.7986,547.8792Q756.1606,556.2161,756.7392,561.26776L753.55194,553.0425L755.4447,570.0126Q755.3254,571.19763,752.27246,554.15216L752.19104,559.17725L752.1506,566.129Q753.84625,574.86597,754.81177,590.5344Q755.0505,589.5523,755.32666,613.6494L752.4625,576.8403L751.87866,590.65643L751.30054,589.99835L740.739,550.20294Q739.25916,546.0445,740.9339,546.16016Q741.558,544.40173,746.72144,551.5952Q739.09393,527.234,736.5358,510.69025L734.7033,499.34888Q732.63385,483.25934,731.22736,466.19867L732.2377,482.3127L730.25543,462.50195L727.85754,423.61655Q726.5333,417.13806,725.58765,403.8874L723.75183,373.312L720.8986,359.60345L720.7083,357.11868Q720.08417,370.81772,720.03656,370.14798L720.3961,383.12634Q719.3907,379.0299,717.2974,364.19556Q718.7482,387.8956,718.15875,403.18478Q718.0599,406.07617,716.1343,385.4788Q714.5147,374.96658,712.53656,364.4957L711.9635,355.04852 M768.8239,1142.589L769.07776,1143.2974L769.3315,1144.0059L770.3689,1144.5186L768.8239,1142.589 M770.3689,1144.5186L771.1859,1145.5388L772.0029,1146.5593Q775.2878,1147.5657,778.57263,1148.5724L770.3689,1144.5186"/>
</g>
<g style="fill:rgb(0,0,0); fill-opacity:1.0; stroke-linejoin: miter">
<path d="M757.02246,1055.0458L755.95166,1055.7018L754.8808,1056.3578L754.9343,1056.8552L757.09174,1055.9089L757.02246,1055.0458 M758.4081,1055.3306L757.09174,1055.9078L757.1715,1056.9016L758.4081,1055.3306 M765.81537,1044.8177L766.41064,1045.9408L764.9605,1054.5708L762.01953,1056.9231L765.81537,1044.8177 M757.1716,1056.9006L755.208,1059.3937L755.52185,1062.3073L757.46985,1060.6138L757.1716,1056.9006 M743.5831,1087.9519L738.7406,1097.2207L733.89813,1106.4896L739.2808,1091.9019Q741.43195,1089.9269,743.5831,1087.9519 M775.57526,584.72125L773.87897,592.2544Q773.22815,604.1604,774.03845,613.53107Q774.7604,621.6795,775.5313,626.77985Q774.85583,627.79395,772.6938,619.63245L772.55347,627.8665L773.0551,633.268Q778.62866,662.16724,778.79004,667.15454L771.7259,632.379Q774.50464,649.75287,776.0259,664.61334L780.507,685.11536Q781.3238,692.6628,782.5043,697.24475Q784.3377,712.931,783.71436,726.224Q779.2794,754.27625,779.3446,758.38806L778.8584,777.7765Q776.54663,787.77954,775.9664,804.3032Q773.62177,809.67993,771.95825,817.28064L771.1746,822.7305Q770.7495,838.6659,770.15204,840.78564Q768.3284,851.4424,766.4453,850.9999L765.20447,860.76556Q764.8308,862.38416,768.74304,878.78845L769.1091,889.208L770.61975,892.92017Q771.4726,897.80707,772.7406,911.728L777.86206,923.7778Q779.7268,928.5764,782.6177,946.76355Q783.22363,956.69653,783.2774,963.43567Q781.4514,962.49695,780.2501,953.66986Q779.87006,969.09454,780.38763,973.47217Q783.2033,996.109,785.41785,1004.6377L778.58636,1025.5637L774.2992,1033.2666Q770.443,1035.5576,764.6953,1041.8033L758.9236,1059.4004L757.46985,1060.6125L757.56354,1061.7788L755.78735,1064.7688L755.52185,1062.3062L746.49304,1070.4591L755.208,1059.3937L754.9343,1056.8541L751.8937,1058.1879L754.8808,1056.3578L754.77136,1055.3425L734.68964,1067.487L717.75555,1096.6947L715.0949,1108.4972L727.03186,1088.3729L735.30963,1091.964L728.68317,1113.3374L729.09424,1119.5089L733.1776,1108.4424L733.3682,1125.7637L754.4662,1138.0986L744.12164,1129.048L743.7528,1119.2839L749.25793,1104.8838L758.4153,1095.4694L785.1209,1091.6635L791.99945,1085.3624L801.23285,1076.052L813.8818,1042.8844L817.4353,1027.6837L817.9255,1024.0627L818.2803,1035.529L817.38574,1042.2142L819.21655,1038.4791L820.48224,1032.314L819.2527,1015.1217L821.6394,984.21423Q821.35657,973.05536,821.2502,958.29834L819.22516,970.7356L818.5079,979.14545L818.7047,937.5656L817.23773,909.8296L817.5994,904.37524Q818.63934,896.65314,820.00775,889.2729L819.4388,885.4902L820.42865,876.554Q823.0426,869.01074,826.0067,852.77423L828.735,830.68445Q830.96857,804.94104,830.59094,803.40106L833.0515,783.6719L832.7316,778.0633Q832.1667,787.67993,831.17096,788.158L830.47577,780.2396L830.83844,771.1853L829.2684,736.9546Q827.9677,727.0333,827.2292,719.3313Q827.1593,721.3689,828.5152,732.0806L828.82886,742.4302Q829.4864,759.70886,827.7418,774.596L827.8644,755.84467L826.46533,749.2326Q827.3207,730.0077,825.11115,717.7307Q823.8734,728.7228,824.64734,734.54236L822.4541,730.35156L821.8334,731.8082L822.13696,742.4807Q821.1938,737.9673,820.2065,730.64484L819.5187,734.22534L818.4167,742.21564Q818.202,755.34644,818.3295,758.01447Q817.76935,764.6379,816.4054,773.8384Q817.18066,758.40173,816.84045,747.7643L815.1597,757.0005L806.1286,723.8756Q808.1304,721.86,813.54974,728.1033L804.5603,701.95984Q803.2344,700.1808,796.8471,669.5865L796.4629,668.98206L798.0524,678.33203L795.16205,665.8794L790.4779,639.9344Q790.4831,638.8042,787.31793,628.0161L786.3727,622.4211Q785.3303,615.0574,785.35284,601.39856Q784.49725,596.31647,784.01953,589.37683Q780.584,600.4477,781.0586,606.0624Q779.6316,602.60406,779.6157,594.1077Q778.1565,606.7025,778.305,622.6956Q777.6674,623.0303,774.5596,595.04645L775.57526,584.72125 M754.4662,1138.0986L759.6909,1142.6699L764.9157,1147.2412L770.089,1147.2324Q762.2776,1142.6655,754.4662,1138.0986"/>
</g>
<g style="fill:rgb(0,0,0); fill-opacity:1.0; stroke-linejoin: miter">
<path d="M763.81915,678.91486L762.8483,681.74927L761.8775,684.5837Q761.8264,685.0432,761.77527,685.5028Q762.7972,682.20886,763.81915,678.91486 M779.59424,766.5524L780.38385,772.22565L780.8592,774.7856L780.8121,774.2945L779.59424,766.5524 M766.8719,683.75775L764.94214,688.5046L763.7536,691.5497L764.77747,684.42316Q762.2197,692.79663,760.9026,700.5723L760.5832,698.2868Q761.1744,689.8629,761.77527,685.5028L760.02496,691.14435Q758.50024,700.98627,758.3526,705.09906L757.7021,700.34296L756.35815,706.0564L755.64166,713.8142Q755.3381,720.8159,754.60364,730.1967Q754.30676,728.3507,754.8151,717.79846L755.5595,707.4447Q753.64734,721.44495,753.3214,728.9321L753.24005,735.46924Q753.67645,748.0937,754.0797,751.156Q754.0975,759.50616,754.2645,767.4175Q753.8395,775.58,753.3295,782.96106L753.01337,796.96234L753.4045,804.5776L752.8289,812.54584L752.1563,820.63525Q750.0919,827.53613,749.3312,831.8896L748.2829,840.3278L744.4742,853.63495L744.7557,860.1996L746.14844,867.157L745.48944,874.2334L746.50806,880.5412L746.41595,889.64703L748.3568,894.0251Q749.6237,899.3298,750.949,907.78394Q751.2176,914.7732,751.1216,924.56903L749.53467,917.6162Q749.26965,918.68665,749.0536,930.2089Q750.64484,938.68805,751.23303,943.6542L753.292,950.80774L751.6799,958.339Q751.18475,960.4917,744.9828,976.937L742.3143,987.9175L736.36224,998.51764L738.21106,996.9054L744.3192,987.95636L745.0423,991.3777Q738.06494,1000.7306,735.2459,1008.18396L733.41797,1023.0785L733.1463,1029.6003L736.4223,1036.9368L740.3501,1031.1427L745.8673,1030.2988L747.06274,1038.8567L748.31506,1029.1511Q748.7528,1029.0793,751.12524,1040.8L753.55896,1044.5635L757.44324,1037.602L761.2391,1024.0872Q761.5113,1021.9137,771.5381,1002.3275L773.6657,995.5663L775.1376,987.3677Q775.536,981.81177,775.0629,971.3767L775.8688,963.8534L776.75995,966.8761L777.1475,973.3401L778.2635,968.10144L776.5973,959.2965L775.5321,947.96985Q775.7023,946.7361,775.4581,936.88275L774.5365,926.4226L774.55963,920.8009L773.0616,930.9041L772.88324,924.24884Q773.34106,897.06964,773.241,891.93506L773.63135,886.06903L775.44684,878.29926L775.7577,873.6406L777.84283,864.24396Q781.4518,852.44995,782.4346,847.359L783.9153,839.8302L786.05084,818.1041L786.1365,804.1557L785.644,808.63324L784.9064,806.0192L784.4049,797.0047L782.719,788.47406Q781.5479,776.65485,780.8592,774.78485L781.8803,785.4115Q781.9735,790.8274,782.8405,799.94977Q781.7352,787.344,780.2062,782.67755Q779.8955,774.8882,778.67645,766.25586L778.11426,771.49457L778.3457,776.3062L776.9458,775.1925L777.29376,780.1957L775.8004,773.1952L775.30084,779.0666L776.16235,794.30865L775.81793,800.37946Q775.1135,792.2913,774.71936,783.90955L773.9782,790.14874L768.10834,772.3198L767.5156,769.51526Q769.7,769.48645,771.8457,771.9981Q770.3694,770.07,766.6088,755.4775L765.2919,748.3431Q764.4917,740.8136,764.43756,732.4313L764.3148,740.175L763.97797,731.92456Q764.1188,723.4496,764.7458,715.17267Q764.6077,709.1376,764.9701,703.5026Q766.641,691.2662,767.203,685.79205L766.8719,683.75775"/>
</g>
<g style="fill:rgb(0,0,0); fill-opacity:1.0; stroke-linejoin: miter">
<path d="M821.1444,355.75613L820.33716,362.4991Q818.23,381.34268,817.1654,403.18198Q816.8439,406.6125,816.16925,395.6723Q816.0724,391.92816,814.07947,409.36542L813.116,435.5056L811.9582,451.13745Q811.845,448.05222,812.01807,440.57587L813.4107,407.00665L810.61383,442.9511Q809.8596,449.5636,810.5139,469.63525L809.9331,479.756Q810.14014,480.13358,809.7905,490.7448Q808.19446,515.60834,806.5572,529.38965Q804.88586,535.90265,803.0302,554.00415L802.0961,569.5293L802.10034,575.4777Q801.5964,584.2995,801.59973,590.605Q800.7595,609.41626,800.64856,606.635Q800.24817,625.43164,800.182,622.9223Q797.24396,642.21674,796.8119,642.11255Q796.4273,656.1842,796.2482,659.0497Q794.78033,668.25275,793.3234,673.56433L792.02106,673.9795L791.0295,684.5875Q791.142,694.0134,791.4133,698.13184L793.8378,710.87976L794.19214,722.9779L795.868,731.69403L796.85394,751.6468L800.4327,762.9593L803.18585,784.8699Q803.4334,791.82623,803.4372,799.22217L802.266,814.9008Q801.30853,807.10516,801.18256,801.5355L801.01666,802.0696L798.8802,827.19867Q799.0534,827.8075,799.3268,848.923L800.4273,863.693L800.0473,868.5867Q797.1295,885.8772,787.3022,926.072L786.13477,934.2545L786.5407,947.193Q785.80566,968.6575,785.5004,966.7008Q786.27045,968.3257,788.3004,951.21423Q788.71466,948.8218,788.72327,932.29346L789.4877,930.94495Q791.79364,948.63367,791.716,951.02734L790.6023,965.08655Q787.9962,975.4053,786.1954,990.0309Q785.9303,1005.83826,785.4152,1005.7499L787.2762,1010.676L786.9814,1015.83545L790.03723,1011.1145L798.84033,1010.99646Q798.90607,1016.2311,797.0931,1024.3413L802.6238,1007.28625Q801.7472,1017.1185,800.42584,1021.1079L802.4057,1036.5286L803.9678,1040.4122L803.651,1037.6995Q807.26013,1025.9833,812.0349,1018.07605Q815.14355,1010.1129,815.5298,1004.0829Q816.8685,1002.8618,818.6091,996.31885L823.8921,974.08044L825.24927,964.8777Q826.3739,953.73206,825.4627,936.3286Q825.5873,930.0421,826.22504,924.364Q826.5057,907.91187,826.70886,904.1675Q827.168,901.06775,827.91724,889.3513L828.20624,889.2682L829.2014,899.63965Q829.3274,908.05334,829.48346,909.2942L830.701,901.00745L830.3695,893.495L828.605,880.53L829.4038,858.9486L829.8216,856.6196Q831.4617,843.46436,831.5402,841.45215Q833.0563,814.4387,833.64874,809.38904L829.3578,834.4201Q831.33856,816.0852,832.69696,789.5159Q832.97064,785.00085,832.9531,774.2552Q832.5409,760.6864,832.5862,753.7048L832.75397,747.7638L833.0545,742.4286L835.1212,726.42395Q834.8674,725.6559,834.9565,715.10455L841.7088,671.4675Q841.64856,668.02386,843.41986,650.48206L843.5893,639.05664Q843.8012,636.9615,844.46747,614.87036L844.2117,605.42847Q844.5037,597.9654,844.50757,592.5486L844.27167,589.3104Q843.7451,599.9685,843.3747,601.43604L842.83954,594.7596L842.7024,585.85724Q842.26843,579.3848,841.92114,567.1473Q841.76935,568.59656,841.91284,543.3613L841.5595,539.3168Q841.78064,523.67126,841.72815,520.98535Q841.0936,535.29553,841.5689,540.8195L841.1019,559.6349L840.1183,581.2007L839.88153,573.48364Q840.4764,560.6659,839.3741,556.93896L839.4931,548.16797L840.4572,522.7731L840.4354,518.0477Q838.7174,528.6655,838.3368,534.89465L838.371,540.5002L836.5221,532.4095L836.1427,535.35254L836.1337,545.8481L835.89325,545.99164Q834.6735,533.12634,834.9759,532.67773L834.00653,538.6973L833.21277,545.7529L832.66705,563.2506L831.3194,584.8148L831.1495,576.7323L831.9149,553.4554Q831.5161,554.8689,830.1051,564.3013L829.4679,562.08014L825.05945,528.6633L824.76904,525.3068L826.1134,524.7431L830.2157,530.39795Q829.3238,522.8607,828.591,520.3807L826.14014,497.91724Q825.37726,484.9593,825.43176,483.966Q825.1409,468.32605,825.41986,456.40402L825.2743,455.59952L824.8672,467.44193L824.8158,465.2882Q824.6855,452.5321,824.81146,451.7683L826.11304,417.9931Q825.60596,415.60312,826.13727,399.85925Q826.1375,396.65677,828.5969,372.2298Q828.0847,361.82764,828.1748,359.27612Q825.81195,368.0963,824.02826,382.96255Q824.4288,367.1694,824.6593,365.17606L819.8845,398.78326L820.7261,363.71182L821.1444,355.75613"/>
</g>
<g style="fill:rgb(0,0,0); fill-opacity:1.0; stroke-linejoin: miter">
<path d="M764.6469,712.399L766.20135,721.85345L767.99243,731.72675L769.87787,737.28046L767.5784,733.9088Q768.0736,739.3979,770.0374,744.44354L771.7971,761.0086Q770.41736,757.1331,769.5463,745.91144L767.9434,740.1658L769.2426,747.4551L769.4144,754.3604L770.3853,760.9587Q771.64825,763.71265,775.4243,782.1315Q776.5125,790.3315,776.82806,798.292Q776.38385,805.0022,777.1422,814.68695Q778.358,823.9461,778.84924,826.59784Q777.7504,835.63385,776.35596,841.70337Q768.8532,853.0797,768.30304,858.04553Q763.6537,865.6698,760.2831,869.76056L759.6581,876.21094L760.7542,883.18146L760.05304,890.47925L760.788,906.9431L763.5619,911.60565Q765.1049,918.02454,765.5408,925.7407L764.7562,934.68744L763.39215,938.30646L763.0798,930.647L761.4933,940.92126L761.2363,947.41046L762.70557,958.0988L764.7867,965.9779L765.1028,972.3085L763.44183,980.4035Q761.1712,987.4459,759.2455,992.1048L754.983,1007.54803L752.9912,1020.3029L753.7199,1020.04834L756.2028,1008.85297L758.4172,1002.6419L759.5512,1005.9682L758.1728,1011.2153L756.01074,1024.5593L753.28326,1027.0173L752.0095,1031.3965L752.5072,1036.9924L754.0888,1042.0581L760.4225,1037.814L762.77185,1042.9712L763.4178,1047.0314L766.0206,1036.7068L765.1677,1047.2673L769.0515,1058.984L772.814,1050.7595L776.189,1040.0345Q778.3223,1036.4585,782.65967,1031.1167L786.03815,1023.66895L790.8177,1001.27185L792.5696,977.9818L794.1851,986.4717L795.01526,987.28595L794.38983,978.5177L792.6386,969.84894L792.42596,963.02625Q793.20447,957.0279,793.9031,948.17737L794.8772,941.18744L794.14764,942.3782Q792.0305,947.6643,791.0988,951.2241Q793.37115,936.4819,795.319,929.7103Q796.50476,923.559,797.8032,911.8144L799.2081,906.0003L802.6416,899.44696L803.75964,894.34766L814.7875,877.4925L818.27997,870.85504L821.3544,862.0222L823.44824,852.6776Q824.235,847.2197,824.7725,838.75305L824.743,827.389L823.97797,826.85596L823.5817,831.04L821.58997,820.5883L816.7398,808.5777L813.71454,802.9691L808.70544,789.2696Q809.3831,791.8582,815.98,809.83795L819.31256,821.2572Q816.2999,811.6184,814.6566,808.07227L811.4237,803.6405Q809.5936,795.91205,807.1836,788.2884L807.97766,795.92694L806.44574,796.433L807.41516,801.4804L804.5373,797.9697L805.497,805.1798Q807.64575,809.79913,809.8153,820.6878L804.95105,807.0532L804.89935,809.50104L802.98596,809.11804Q801.2965,808.70874,793.4781,794.4999Q795.9851,793.3752,799.60425,796.01587Q789.8321,783.58655,783.1709,759.63696L784.7595,766.1139L782.4232,758.80786Q780.543,750.9238,779.50006,741.8806Q776.7923,736.70984,774.7152,730.5556L772.9055,719.8076L770.59296,713.6098Q770.4865,717.88336,770.81,723.2322L769.1144,717.6092Q769.137,726.2433,770.8154,734.2847Q768.6315,727.777,764.6469,712.399"/>
</g>
</g>
</svg>